<svg width="209" height="48" viewBox="0 0 209 48" fill="none" xmlns="http://www.w3.org/2000/svg">
<path d="M21.2816 20.6161V9.63733H0V38.3627H21.2816V26.6319H16.5193V33.5501H4.76232V14.45H16.5193V20.6161H21.2816Z" fill="white"/>
<path d="M16.5189 20.6163H10.7148V26.6321H16.5189V20.6163Z" fill="white"/>
<path d="M36.3699 30.2412C35.3282 30.2412 34.4352 29.9404 33.5423 29.4892C32.6494 29.038 32.0541 28.286 31.7564 27.3837C31.31 26.4813 31.1611 25.4285 31.1611 24.2254C31.1611 23.0222 31.31 21.9695 31.7564 21.0671C32.2029 20.1647 32.7982 19.4128 33.5423 18.9616C34.2864 18.5104 35.3282 18.2096 36.3699 18.2096C37.7093 18.2096 38.6023 18.5104 39.4952 19.2624C40.2393 20.0143 40.8346 20.7663 40.9834 21.8191H39.1975C39.0487 21.2175 38.7511 20.7663 38.3046 20.3151C37.8581 19.8639 37.114 19.7135 36.3699 19.7135C35.6258 19.7135 35.0305 19.8639 34.4352 20.3151C33.8399 20.6159 33.3935 21.2175 33.0958 21.8191C32.7982 22.4206 32.6494 23.323 32.6494 24.2254C32.6494 25.5789 32.947 26.6317 33.6911 27.5341C34.4352 28.4364 35.1793 28.7372 36.3699 28.7372C37.2629 28.7372 37.8581 28.5868 38.3046 28.1356C38.7511 27.6845 39.0487 27.2333 39.1975 26.6317H40.8346C40.6858 27.6845 40.2393 28.5868 39.3464 29.1884C38.7511 29.9404 37.7093 30.2412 36.3699 30.2412Z" fill="white"/>
<path d="M43.6621 29.9404V13.8481H45.2992V30.0908H43.6621V29.9404Z" fill="white"/>
<path d="M53.3357 30.2412C52.294 30.2412 51.2522 29.9404 50.5081 29.4892C49.764 29.038 49.0199 28.286 48.7222 27.3837C48.4246 26.4813 48.127 25.4285 48.127 24.2254C48.127 23.0222 48.2758 21.9695 48.7222 21.0671C49.1687 20.1647 49.764 19.4128 50.5081 18.9616C51.2522 18.5104 52.294 18.2096 53.3357 18.2096C54.3775 18.2096 55.2704 18.5104 56.0146 18.9616C56.7587 19.4128 57.354 20.1647 57.6516 20.9167C58.0981 21.8191 58.2469 22.7214 58.2469 23.9246V24.827H49.764C49.9128 26.0301 50.2105 27.0829 50.8058 27.6845C51.4011 28.4364 52.294 28.7372 53.3357 28.7372C54.0799 28.7372 54.6751 28.5868 55.1216 28.286C55.5681 27.9853 56.0145 27.6845 56.1634 27.2333H57.9492C57.6516 28.1356 57.2051 28.8876 56.3122 29.3388C55.4193 30.0908 54.5263 30.2412 53.3357 30.2412ZM53.3357 19.8639C52.294 19.8639 51.5499 20.1647 50.8058 20.7663C50.2105 21.3679 49.764 22.2703 49.6152 23.323H56.461C56.461 22.2703 56.1634 21.3679 55.5681 20.7663C55.1216 20.1647 54.3775 19.8639 53.3357 19.8639Z" fill="white"/>
<path d="M65.6886 29.9407H64.0516L59.5869 18.5107H61.3728L64.7957 27.9855L68.2186 18.5107H70.0045L65.6886 29.9407Z" fill="white"/>
<path d="M76.8504 30.2409C75.8086 30.2409 74.7669 29.9401 74.0228 29.4889C73.2786 29.0378 72.5345 28.2858 72.2369 27.3834C71.9392 26.4811 71.6416 25.4283 71.6416 24.2251C71.6416 23.022 71.7904 21.9692 72.2369 21.0668C72.5345 20.3149 73.1298 19.5629 74.0228 19.1117C74.7669 18.6605 75.8086 18.3597 76.8504 18.3597C77.8921 18.3597 78.7851 18.6605 79.5292 19.1117C80.2733 19.5629 80.8686 20.3149 81.1662 21.0668C81.6127 21.9692 81.7615 22.8716 81.7615 24.0747V24.9771H73.2786C73.4275 26.1803 73.7251 27.233 74.3204 27.8346C74.9157 28.5866 75.8086 28.8874 76.8504 28.8874C77.5945 28.8874 78.1898 28.737 78.6363 28.4362C79.0827 28.1354 79.5292 27.8346 79.678 27.3834H81.4639C81.1662 28.2858 80.7198 29.0378 79.8268 29.4889C78.9339 30.0905 78.041 30.2409 76.8504 30.2409ZM76.8504 19.8637C75.8086 19.8637 75.0645 20.1645 74.3204 20.7661C73.7251 21.3676 73.2786 22.27 73.1298 23.3228H79.9757C79.9757 22.27 79.678 21.3676 79.0827 20.7661C78.6363 20.1645 77.8921 19.8637 76.8504 19.8637Z" fill="white"/>
<path d="M86.2249 24.2257V30.0911H84.5879V18.6611H86.2249V20.7666C86.5226 20.0146 87.1179 19.5634 87.7132 19.1123C88.3085 18.8115 88.9037 18.5107 89.6479 18.5107H89.9455V20.165H89.6479C89.0526 20.165 88.6061 20.3154 88.0108 20.6162C87.4155 20.917 87.1179 21.3682 86.8202 21.9698C86.3738 22.5713 86.2249 23.3233 86.2249 24.2257Z" fill="white"/>
<path d="M102.149 30.3913C100.959 30.3913 99.9169 30.0905 99.0239 29.6393C98.131 29.1882 97.3869 28.4362 96.9404 27.5338C96.4939 26.6314 96.1963 25.5787 96.1963 24.3755C96.1963 23.1724 96.4939 22.1196 96.9404 21.2172C97.3869 20.3149 98.131 19.5629 99.0239 19.1117C99.9169 18.6605 100.959 18.3597 102.149 18.3597C103.34 18.3597 104.382 18.6605 105.274 19.1117C106.167 19.5629 106.912 20.3149 107.358 21.2172C107.804 22.1196 108.102 23.1724 108.102 24.3755C108.102 25.5787 107.804 26.6314 107.358 27.5338C106.763 28.2858 106.167 29.0378 105.274 29.6393C104.382 30.0905 103.34 30.3913 102.149 30.3913ZM102.149 27.3834C102.893 27.3834 103.489 27.0826 103.935 26.4811C104.382 25.8795 104.679 25.1275 104.679 24.0747C104.679 23.022 104.382 22.27 103.935 21.8188C103.489 21.2172 102.893 20.9165 102.149 20.9165C101.405 20.9165 100.81 21.2172 100.363 21.8188C99.9168 22.4204 99.6192 23.1724 99.6192 24.0747C99.6192 25.1275 99.9168 25.8795 100.363 26.4811C100.81 27.0826 101.405 27.3834 102.149 27.3834Z" fill="white"/>
<path d="M113.46 24.3758V30.0908H110.037V18.36H113.311V20.1647C113.609 19.5631 114.055 19.112 114.651 18.6608C115.246 18.36 115.841 18.2096 116.436 18.2096H116.883V21.3679H116.288C115.395 21.3679 114.799 21.6687 114.204 22.1199C113.758 22.7214 113.46 23.4734 113.46 24.3758Z" fill="white"/>
<path d="M120.604 17.157C120.008 17.157 119.562 17.0066 119.264 16.5555C118.818 16.1043 118.669 15.6531 118.669 15.2019C118.669 14.6003 118.818 14.1491 119.264 13.698C119.711 13.2468 120.157 13.0964 120.604 13.0964C121.199 13.0964 121.645 13.2468 122.092 13.698C122.538 14.1491 122.687 14.6003 122.687 15.2019C122.687 15.8035 122.538 16.2547 122.092 16.5555C121.645 16.8562 121.199 17.157 120.604 17.157ZM118.967 29.9406V18.3602H122.39V29.9406H118.967Z" fill="white"/>
<path d="M129.384 29.9404C128.342 29.9404 127.449 29.6396 126.705 29.1884C125.961 28.7372 125.366 27.9852 124.919 27.0829C124.473 26.1805 124.324 25.1278 124.324 24.075C124.324 22.8718 124.473 21.9695 124.919 21.0671C125.366 20.1647 125.961 19.4128 126.705 18.9616C127.449 18.5104 128.342 18.2096 129.384 18.2096C130.128 18.2096 130.724 18.36 131.319 18.6608C131.914 18.9616 132.361 19.4128 132.807 19.8639V18.36H136.081V29.4892C136.081 31.2939 135.635 32.6475 134.593 33.5499C133.551 34.4522 132.212 34.9034 130.426 34.9034C128.938 34.9034 127.747 34.6026 126.705 33.8506C125.664 33.0987 125.068 32.1963 124.771 31.1435H128.194C128.342 31.4443 128.64 31.5947 128.938 31.8955C129.235 32.0459 129.682 32.1963 130.277 32.1963C131.021 32.1963 131.617 32.0459 132.063 31.5947C132.509 31.2939 132.658 30.6924 132.658 29.79V28.4364C132.212 28.8876 131.765 29.1884 131.319 29.4892C130.724 29.79 129.979 29.9404 129.384 29.9404ZM130.128 26.9325C130.872 26.9325 131.468 26.6317 131.914 26.1805C132.361 25.5789 132.658 24.9774 132.658 24.075C132.658 23.1726 132.361 22.4206 131.914 21.9695C131.468 21.3679 130.872 21.0671 130.128 21.0671C129.384 21.0671 128.789 21.3679 128.342 21.9695C127.896 22.571 127.598 23.1726 127.598 24.075C127.598 24.9774 127.896 25.7293 128.342 26.1805C128.938 26.6317 129.533 26.9325 130.128 26.9325Z" fill="white"/>
<path d="M140.249 17.157C139.654 17.157 139.207 17.0066 138.91 16.5555C138.463 16.1043 138.314 15.6531 138.314 15.2019C138.314 14.6003 138.463 14.1491 138.91 13.698C139.356 13.2468 139.803 13.0964 140.249 13.0964C140.844 13.0964 141.291 13.2468 141.737 13.698C142.184 14.1491 142.333 14.6003 142.333 15.2019C142.333 15.8035 142.184 16.2547 141.737 16.5555C141.291 16.8562 140.844 17.157 140.249 17.157ZM138.612 29.9406V18.3602H142.035V29.9406H138.612Z" fill="white"/>
<path d="M147.986 23.1726V29.9404H144.563V18.36H147.838V19.7135C148.731 18.6608 149.772 18.0592 151.26 18.0592C152.451 18.0592 153.493 18.5104 154.237 19.4128C154.981 20.3151 155.279 21.5183 155.279 22.8718V30.0908H151.856V23.323C151.856 22.7214 151.707 22.1199 151.409 21.6687C151.112 21.2175 150.665 21.0671 149.921 21.0671C149.326 21.0671 148.879 21.2175 148.433 21.6687C148.135 21.9695 147.986 22.571 147.986 23.1726Z" fill="white"/>
<path d="M161.082 30.3913C159.892 30.3913 158.85 30.0905 158.255 29.3385C157.659 28.5865 157.213 27.8346 157.213 26.6314C157.213 25.4282 157.659 24.5259 158.552 23.7739C159.445 23.1723 160.636 22.7211 162.124 22.7211H164.208V22.4203C164.208 21.8188 164.059 21.3676 163.761 21.0668C163.315 20.766 162.868 20.6156 162.273 20.6156C161.826 20.6156 161.38 20.766 161.082 20.9164C160.785 21.0668 160.636 21.3676 160.487 21.518H157.362C157.511 20.4652 158.106 19.7132 158.999 18.9613C159.892 18.2093 160.933 17.9085 162.422 17.9085C163.91 17.9085 165.1 18.3597 165.993 19.1117C166.886 19.8636 167.333 21.0668 167.333 22.7211V29.9401H164.208V28.5865C163.91 29.1881 163.315 29.6393 162.719 29.7897C162.124 29.9401 161.678 30.3913 161.082 30.3913ZM161.975 27.6842C162.273 27.6842 162.719 27.6842 163.017 27.5338C163.315 27.3834 163.612 27.233 163.91 26.9322C164.059 26.6314 164.208 26.3306 164.208 25.8794V25.1275H162.273C161.678 25.1275 161.231 25.2778 160.933 25.4282C160.636 25.729 160.487 26.0298 160.487 26.481C160.487 26.9322 160.636 27.233 160.933 27.3834C161.231 27.5338 161.529 27.6842 161.975 27.6842Z" fill="white"/>
<path d="M174.478 30.0908C173.287 30.0908 172.394 29.79 171.65 29.0381C171.055 28.4365 170.608 27.3837 170.608 26.1806V21.2175H168.822V18.36H170.608V14.901C171.203 14.901 171.799 14.7506 172.245 14.7506C172.84 14.6002 173.436 14.6002 173.882 14.4498V18.36H175.966V21.2175H173.882V25.7294C173.882 26.1806 174.031 26.4813 174.18 26.7821C174.329 27.0829 174.775 27.0829 175.073 27.0829H175.966V29.9404H174.478V30.0908Z" fill="white"/>
<path d="M179.984 17.157C179.388 17.157 178.942 17.0066 178.644 16.5555C178.198 16.1043 178.049 15.6531 178.049 15.2019C178.049 14.6003 178.198 14.1491 178.644 13.698C179.091 13.2468 179.537 13.0964 179.984 13.0964C180.579 13.0964 181.025 13.2468 181.472 13.698C181.918 14.1491 182.067 14.6003 182.067 15.2019C182.067 15.8035 181.918 16.2547 181.472 16.5555C181.025 16.8562 180.579 17.157 179.984 17.157ZM178.346 29.9406V18.3602H181.769V29.9406H178.346Z" fill="white"/>
<path d="M189.657 30.3913C188.466 30.3913 187.425 30.0905 186.532 29.6393C185.639 29.1882 184.895 28.4362 184.448 27.5338C184.002 26.6314 183.704 25.5787 183.704 24.3755C183.704 23.1724 184.002 22.1196 184.448 21.2172C184.895 20.3149 185.639 19.5629 186.532 19.1117C187.425 18.6605 188.466 18.3597 189.657 18.3597C190.848 18.3597 191.889 18.6605 192.782 19.1117C193.675 19.5629 194.419 20.3149 194.866 21.2172C195.312 22.1196 195.61 23.1724 195.61 24.3755C195.61 25.5787 195.312 26.6314 194.866 27.5338C194.419 28.4362 193.675 29.1882 192.782 29.6393C191.741 30.0905 190.848 30.3913 189.657 30.3913ZM189.657 27.3834C190.401 27.3834 190.996 27.0826 191.443 26.4811C191.889 25.8795 192.187 25.1275 192.187 24.0747C192.187 23.022 191.889 22.27 191.443 21.8188C190.996 21.2172 190.401 20.9165 189.657 20.9165C188.913 20.9165 188.318 21.2172 187.871 21.8188C187.425 22.4204 187.127 23.1724 187.127 24.0747C187.127 25.1275 187.425 25.8795 187.871 26.4811C188.318 27.0826 188.913 27.3834 189.657 27.3834Z" fill="white"/>
<path d="M200.967 23.1726V29.9404H197.544V18.36H200.818V19.7135C201.711 18.6608 202.753 18.0592 204.241 18.0592C205.432 18.0592 206.473 18.5104 207.217 19.4128C207.962 20.3151 208.259 21.5183 208.259 22.8718V30.0908H204.836V23.323C204.836 22.7214 204.687 22.1199 204.39 21.6687C204.092 21.2175 203.646 21.0671 202.902 21.0671C202.306 21.0671 201.86 21.2175 201.413 21.6687C201.116 21.9695 200.967 22.571 200.967 23.1726Z" fill="white"/>
</svg>
