<svg width="62" height="64" viewBox="0 0 62 64" fill="none" xmlns="http://www.w3.org/2000/svg">
<path d="M46.2847 15.4867L46.2711 0H16V40H46.2847V23.2267H39.6999V33.5467H22.5848V6.45333H39.6999V15.4867H46.2847Z" fill="#065CD7"/>
<path d="M39.6995 15.4866H31.8018V24.5199H39.6995V15.4866Z" fill="#065CD7"/>
<path d="M8.67241 56.6364C8.67241 57.5568 8.50621 58.3523 8.17383 59.0227C7.84144 59.6932 7.38548 60.2102 6.80593 60.5739C6.22639 60.9375 5.56445 61.1193 4.82014 61.1193C4.07582 61.1193 3.41389 60.9375 2.83434 60.5739C2.25479 60.2102 1.79883 59.6932 1.46644 59.0227C1.13406 58.3523 0.967862 57.5568 0.967862 56.6364C0.967862 55.7159 1.13406 54.9205 1.46644 54.25C1.79883 53.5795 2.25479 53.0625 2.83434 52.6989C3.41389 52.3352 4.07582 52.1534 4.82014 52.1534C5.56445 52.1534 6.22639 52.3352 6.80593 52.6989C7.38548 53.0625 7.84144 53.5795 8.17383 54.25C8.50621 54.9205 8.67241 55.7159 8.67241 56.6364ZM7.64968 56.6364C7.64968 55.8807 7.52326 55.2429 7.27042 54.723C7.02042 54.2031 6.68093 53.8097 6.25195 53.5426C5.82582 53.2756 5.34854 53.142 4.82014 53.142C4.29173 53.142 3.81303 53.2756 3.38406 53.5426C2.95792 53.8097 2.61843 54.2031 2.36559 54.723C2.11559 55.2429 1.99059 55.8807 1.99059 56.6364C1.99059 57.392 2.11559 58.0298 2.36559 58.5497C2.61843 59.0696 2.95792 59.4631 3.38406 59.7301C3.81303 59.9972 4.29173 60.1307 4.82014 60.1307C5.34854 60.1307 5.82582 59.9972 6.25195 59.7301C6.68093 59.4631 7.02042 59.0696 7.27042 58.5497C7.52326 58.0298 7.64968 57.392 7.64968 56.6364ZM10.313 61V54.4545H11.2846V55.4432H11.3528C11.4721 55.1193 11.688 54.8565 12.0005 54.6548C12.313 54.4531 12.6653 54.3523 13.0574 54.3523C13.1312 54.3523 13.2235 54.3537 13.3343 54.3565C13.4451 54.3594 13.5289 54.3636 13.5858 54.3693V55.392C13.5517 55.3835 13.4735 55.3707 13.3514 55.3537C13.2321 55.3338 13.1056 55.3239 12.9721 55.3239C12.6539 55.3239 12.3699 55.3906 12.1199 55.5241C11.8727 55.6548 11.6767 55.8366 11.5318 56.0696C11.3897 56.2997 11.3187 56.5625 11.3187 56.858V61H10.313ZM14.7779 61V54.4545H15.7836V61H14.7779ZM15.2892 53.3636C15.0932 53.3636 14.9242 53.2969 14.7821 53.1634C14.6429 53.0298 14.5733 52.8693 14.5733 52.6818C14.5733 52.4943 14.6429 52.3338 14.7821 52.2003C14.9242 52.0668 15.0932 52 15.2892 52C15.4853 52 15.6529 52.0668 15.7921 52.2003C15.9341 52.3338 16.0051 52.4943 16.0051 52.6818C16.0051 52.8693 15.9341 53.0298 15.7921 53.1634C15.6529 53.2969 15.4853 53.3636 15.2892 53.3636ZM20.2676 63.5909C19.7818 63.5909 19.3642 63.5284 19.0147 63.4034C18.6653 63.2812 18.3741 63.1193 18.1412 62.9176C17.911 62.7188 17.7278 62.5057 17.5914 62.2784L18.3926 61.7159C18.4835 61.8352 18.5985 61.9716 18.7377 62.125C18.877 62.2812 19.0673 62.4162 19.3088 62.5298C19.5531 62.6463 19.8727 62.7045 20.2676 62.7045C20.796 62.7045 21.2321 62.5767 21.5758 62.321C21.9196 62.0653 22.0914 61.6648 22.0914 61.1193V59.7898H22.0062C21.9324 59.9091 21.8272 60.0568 21.6909 60.233C21.5574 60.4062 21.3642 60.5611 21.1113 60.6974C20.8613 60.831 20.5233 60.8977 20.0971 60.8977C19.5687 60.8977 19.0943 60.7727 18.6738 60.5227C18.2562 60.2727 17.9252 59.9091 17.6809 59.4318C17.4395 58.9545 17.3187 58.375 17.3187 57.6932C17.3187 57.0227 17.4366 56.4389 17.6724 55.9418C17.9082 55.4418 18.2363 55.0554 18.6568 54.7827C19.0772 54.5071 19.563 54.3693 20.1142 54.3693C20.5403 54.3693 20.8784 54.4403 21.1284 54.5824C21.3812 54.7216 21.5744 54.8807 21.7079 55.0597C21.8443 55.2358 21.9494 55.3807 22.0233 55.4943H22.1255V54.4545H23.0971V61.1875C23.0971 61.75 22.9693 62.2074 22.7136 62.5597C22.4608 62.9148 22.1199 63.1747 21.6909 63.3395C21.2647 63.5071 20.7903 63.5909 20.2676 63.5909ZM20.2335 59.9943C20.6369 59.9943 20.9778 59.902 21.2562 59.7173C21.5346 59.5327 21.7463 59.267 21.8912 58.9205C22.036 58.5739 22.1085 58.1591 22.1085 57.6761C22.1085 57.2045 22.0375 56.7884 21.8954 56.4276C21.7534 56.0668 21.5431 55.7841 21.2647 55.5795C20.9863 55.375 20.6426 55.2727 20.2335 55.2727C19.8074 55.2727 19.4522 55.3807 19.1681 55.5966C18.8869 55.8125 18.6752 56.1023 18.5332 56.4659C18.394 56.8295 18.3244 57.233 18.3244 57.6761C18.3244 58.1307 18.3954 58.5327 18.5375 58.8821C18.6824 59.2287 18.8954 59.5014 19.1767 59.7003C19.4608 59.8963 19.813 59.9943 20.2335 59.9943ZM24.938 61V54.4545H25.9437V61H24.938ZM25.4494 53.3636C25.2534 53.3636 25.0843 53.2969 24.9423 53.1634C24.8031 53.0298 24.7335 52.8693 24.7335 52.6818C24.7335 52.4943 24.8031 52.3338 24.9423 52.2003C25.0843 52.0668 25.2534 52 25.4494 52C25.6454 52 25.813 52.0668 25.9522 52.2003C26.0943 52.3338 26.1653 52.4943 26.1653 52.6818C26.1653 52.8693 26.0943 53.0298 25.9522 53.1634C25.813 53.2969 25.6454 53.3636 25.4494 53.3636ZM28.7914 57.0625V61H27.7857V54.4545H28.7573V55.4773H28.8425C28.9959 55.1449 29.2289 54.8778 29.5414 54.6761C29.8539 54.4716 30.2573 54.3693 30.7516 54.3693C31.1948 54.3693 31.5826 54.4602 31.915 54.642C32.2473 54.821 32.5059 55.0938 32.6905 55.4602C32.8752 55.8239 32.9675 56.2841 32.9675 56.8409V61H31.9618V56.9091C31.9618 56.3949 31.8283 55.9943 31.5613 55.7074C31.2942 55.4176 30.9277 55.2727 30.4618 55.2727C30.1408 55.2727 29.8539 55.3423 29.601 55.4815C29.351 55.6207 29.1536 55.8239 29.0087 56.0909C28.8638 56.358 28.7914 56.6818 28.7914 57.0625ZM36.7314 61.1534C36.3166 61.1534 35.9402 61.0753 35.6021 60.919C35.264 60.7599 34.9956 60.5312 34.7967 60.233C34.5978 59.9318 34.4984 59.5682 34.4984 59.142C34.4984 58.767 34.5723 58.4631 34.72 58.2301C34.8677 57.9943 35.0652 57.8097 35.3123 57.6761C35.5595 57.5426 35.8322 57.4432 36.1305 57.3778C36.4316 57.3097 36.7342 57.2557 37.0382 57.2159C37.4359 57.1648 37.7583 57.1264 38.0055 57.1009C38.2555 57.0724 38.4373 57.0256 38.551 56.9602C38.6674 56.8949 38.7257 56.7812 38.7257 56.6193V56.5852C38.7257 56.1648 38.6106 55.8381 38.3805 55.6051C38.1532 55.3722 37.8081 55.2557 37.345 55.2557C36.8649 55.2557 36.4885 55.3608 36.2157 55.571C35.943 55.7812 35.7512 56.0057 35.6404 56.2443L34.6859 55.9034C34.8564 55.5057 35.0836 55.196 35.3677 54.9744C35.6547 54.75 35.9672 54.5937 36.3052 54.5057C36.6461 54.4148 36.9814 54.3693 37.3109 54.3693C37.5211 54.3693 37.7626 54.3949 38.0353 54.446C38.3109 54.4943 38.5765 54.5952 38.8322 54.7486C39.0907 54.902 39.3052 55.1335 39.4757 55.4432C39.6461 55.7528 39.7314 56.1676 39.7314 56.6875V61H38.7257V60.1136H38.6745C38.6064 60.2557 38.4927 60.4077 38.3336 60.5696C38.1745 60.7315 37.9629 60.8693 37.6987 60.983C37.4345 61.0966 37.112 61.1534 36.7314 61.1534ZM36.8848 60.25C37.2825 60.25 37.6177 60.1719 37.8904 60.0156C38.166 59.8594 38.3734 59.6577 38.5126 59.4105C38.6547 59.1634 38.7257 58.9034 38.7257 58.6307V57.7102C38.6831 57.7614 38.5893 57.8082 38.4444 57.8509C38.3024 57.8906 38.1376 57.9261 37.9501 57.9574C37.7654 57.9858 37.585 58.0114 37.4089 58.0341C37.2356 58.054 37.095 58.071 36.987 58.0852C36.7257 58.1193 36.4814 58.1747 36.2541 58.2514C36.0297 58.3253 35.8478 58.4375 35.7086 58.5881C35.5723 58.7358 35.5041 58.9375 35.5041 59.1932C35.5041 59.5426 35.6333 59.8068 35.8919 59.9858C36.1532 60.1619 36.4842 60.25 36.8848 60.25ZM44.4135 54.4545V55.3068H41.0215V54.4545H44.4135ZM42.0101 52.8864H43.0158V59.125C43.0158 59.4091 43.057 59.6222 43.1394 59.7642C43.2246 59.9034 43.3326 59.9972 43.4632 60.0455C43.5968 60.0909 43.7374 60.1136 43.8851 60.1136C43.9959 60.1136 44.0868 60.108 44.1578 60.0966C44.2289 60.0824 44.2857 60.071 44.3283 60.0625L44.5328 60.9659C44.4647 60.9915 44.3695 61.017 44.2473 61.0426C44.1252 61.071 43.9703 61.0852 43.7828 61.0852C43.4988 61.0852 43.2203 61.0241 42.9476 60.902C42.6777 60.7798 42.4533 60.5938 42.2743 60.3438C42.0982 60.0938 42.0101 59.7784 42.0101 59.3977V52.8864ZM45.9263 61V54.4545H46.932V61H45.9263ZM46.4377 53.3636C46.2417 53.3636 46.0726 53.2969 45.9306 53.1634C45.7914 53.0298 45.7218 52.8693 45.7218 52.6818C45.7218 52.4943 45.7914 52.3338 45.9306 52.2003C46.0726 52.0668 46.2417 52 46.4377 52C46.6337 52 46.8013 52.0668 46.9405 52.2003C47.0826 52.3338 47.1536 52.4943 47.1536 52.6818C47.1536 52.8693 47.0826 53.0298 46.9405 53.1634C46.8013 53.2969 46.6337 53.3636 46.4377 53.3636ZM51.4331 61.1364C50.8422 61.1364 50.3237 60.9957 49.8777 60.7145C49.4345 60.4332 49.0879 60.0398 48.8379 59.5341C48.5907 59.0284 48.4672 58.4375 48.4672 57.7614C48.4672 57.0795 48.5907 56.4844 48.8379 55.9759C49.0879 55.4673 49.4345 55.0724 49.8777 54.7912C50.3237 54.5099 50.8422 54.3693 51.4331 54.3693C52.024 54.3693 52.541 54.5099 52.9842 54.7912C53.4302 55.0724 53.7768 55.4673 54.024 55.9759C54.274 56.4844 54.399 57.0795 54.399 57.7614C54.399 58.4375 54.274 59.0284 54.024 59.5341C53.7768 60.0398 53.4302 60.4332 52.9842 60.7145C52.541 60.9957 52.024 61.1364 51.4331 61.1364ZM51.4331 60.233C51.8819 60.233 52.2512 60.1179 52.541 59.8878C52.8308 59.6577 53.0453 59.3551 53.1845 58.9801C53.3237 58.6051 53.3933 58.1989 53.3933 57.7614C53.3933 57.3239 53.3237 56.9162 53.1845 56.5384C53.0453 56.1605 52.8308 55.8551 52.541 55.6222C52.2512 55.3892 51.8819 55.2727 51.4331 55.2727C50.9842 55.2727 50.6149 55.3892 50.3251 55.6222C50.0353 55.8551 49.8208 56.1605 49.6816 56.5384C49.5424 56.9162 49.4728 57.3239 49.4728 57.7614C49.4728 58.1989 49.5424 58.6051 49.6816 58.9801C49.8208 59.3551 50.0353 59.6577 50.3251 59.8878C50.6149 60.1179 50.9842 60.233 51.4331 60.233ZM56.9398 57.0625V61H55.9341V54.4545H56.9057V55.4773H56.9909C57.1444 55.1449 57.3773 54.8778 57.6898 54.6761C58.0023 54.4716 58.4057 54.3693 58.9 54.3693C59.3432 54.3693 59.731 54.4602 60.0634 54.642C60.3958 54.821 60.6543 55.0938 60.839 55.4602C61.0236 55.8239 61.1159 56.2841 61.1159 56.8409V61H60.1103V56.9091C60.1103 56.3949 59.9767 55.9943 59.7097 55.7074C59.4426 55.4176 59.0762 55.2727 58.6103 55.2727C58.2892 55.2727 58.0023 55.3423 57.7495 55.4815C57.4995 55.6207 57.302 55.8239 57.1571 56.0909C57.0123 56.358 56.9398 56.6818 56.9398 57.0625Z" fill="#626260"/>
</svg>
