<svg width="37" height="64" viewBox="0 0 37 64" fill="none" xmlns="http://www.w3.org/2000/svg">
<path d="M33.2847 15.4867L33.2711 0H3V40H33.2847V23.2267H26.6999V33.5467H9.58482V6.45333H26.6999V15.4867H33.2847Z" fill="#F05A61"/>
<path d="M26.6995 15.4866H18.8018V24.5199H26.6995V15.4866Z" fill="#F05A61"/>
<path d="M0.0509589 61V52.2727H2.99982C3.68164 52.2727 4.2413 52.3892 4.6788 52.6222C5.1163 52.8523 5.44016 53.169 5.65039 53.5724C5.86062 53.9759 5.96573 54.4347 5.96573 54.9489C5.96573 55.4631 5.86062 55.919 5.65039 56.3168C5.44016 56.7145 5.11772 57.027 4.68306 57.2543C4.2484 57.4787 3.693 57.5909 3.01687 57.5909H0.630504V56.6364H2.98278C3.44869 56.6364 3.82369 56.5682 4.10778 56.4318C4.39471 56.2955 4.6021 56.1023 4.72994 55.8523C4.86062 55.5994 4.92596 55.2983 4.92596 54.9489C4.92596 54.5994 4.86062 54.294 4.72994 54.0327C4.59925 53.7713 4.39045 53.5696 4.10352 53.4276C3.81658 53.2827 3.43732 53.2102 2.96573 53.2102H1.10778V61H0.0509589ZM4.15891 57.0795L6.30664 61H5.07937L2.96573 57.0795H4.15891ZM10.2644 61.1364C9.6337 61.1364 9.08967 60.9972 8.63228 60.7188C8.17773 60.4375 7.82688 60.0455 7.57972 59.5426C7.3354 59.0369 7.21325 58.4489 7.21325 57.7784C7.21325 57.108 7.3354 56.517 7.57972 56.0057C7.82688 55.4915 8.17063 55.0909 8.61097 54.804C9.05415 54.5142 9.5712 54.3693 10.1621 54.3693C10.503 54.3693 10.8397 54.4261 11.1721 54.5398C11.5044 54.6534 11.807 54.8381 12.0797 55.0938C12.3525 55.3466 12.5698 55.6818 12.7317 56.0994C12.8936 56.517 12.9746 57.0312 12.9746 57.642V58.0682H7.92915V57.1989H11.9519C11.9519 56.8295 11.878 56.5 11.7303 56.2102C11.5854 55.9205 11.378 55.6918 11.1081 55.5241C10.8411 55.3565 10.5257 55.2727 10.1621 55.2727C9.76154 55.2727 9.41495 55.3722 9.12234 55.571C8.83256 55.767 8.60955 56.0227 8.4533 56.3381C8.29705 56.6534 8.21893 56.9915 8.21893 57.3523V57.9318C8.21893 58.4261 8.30415 58.8452 8.47461 59.1889C8.6479 59.5298 8.88796 59.7898 9.19478 59.9688C9.5016 60.1449 9.85813 60.233 10.2644 60.233C10.5286 60.233 10.7672 60.196 10.9803 60.1222C11.1962 60.0455 11.3823 59.9318 11.5385 59.7812C11.6948 59.6278 11.8155 59.4375 11.9007 59.2102L12.8723 59.483C12.7701 59.8125 12.5982 60.1023 12.3567 60.3523C12.1152 60.5994 11.8169 60.7926 11.4618 60.9318C11.1067 61.0682 10.7076 61.1364 10.2644 61.1364ZM14.5044 63.4545V54.4545H15.476V55.4943H15.5953C15.6692 55.3807 15.7715 55.2358 15.9022 55.0597C16.0357 54.8807 16.226 54.7216 16.4732 54.5824C16.7232 54.4403 17.0613 54.3693 17.4874 54.3693C18.0385 54.3693 18.5243 54.5071 18.9448 54.7827C19.3652 55.0582 19.6934 55.4489 19.9292 55.9545C20.165 56.4602 20.2828 57.0568 20.2828 57.7443C20.2828 58.4375 20.165 59.0384 19.9292 59.5469C19.6934 60.0526 19.3667 60.4446 18.949 60.723C18.5314 60.9986 18.0499 61.1364 17.5044 61.1364C17.084 61.1364 16.7473 61.0668 16.4945 60.9276C16.2417 60.7855 16.0471 60.625 15.9107 60.446C15.7743 60.2642 15.6692 60.1136 15.5953 59.9943H15.5101V63.4545H14.5044ZM15.4931 57.7273C15.4931 58.2216 15.5655 58.6577 15.7104 59.0355C15.8553 59.4105 16.0669 59.7045 16.3453 59.9176C16.6238 60.1278 16.9647 60.233 17.3681 60.233C17.7885 60.233 18.1394 60.1222 18.4206 59.9006C18.7047 59.6761 18.9178 59.375 19.0598 58.9972C19.2047 58.6165 19.2772 58.1932 19.2772 57.7273C19.2772 57.267 19.2061 56.8523 19.0641 56.483C18.9249 56.1108 18.7132 55.8168 18.4292 55.6009C18.1479 55.3821 17.7942 55.2727 17.3681 55.2727C16.959 55.2727 16.6152 55.3764 16.3368 55.5838C16.0584 55.7884 15.8482 56.0753 15.7061 56.4446C15.5641 56.8111 15.4931 57.2386 15.4931 57.7273ZM24.476 61.1364C23.8851 61.1364 23.3667 60.9957 22.9206 60.7145C22.4775 60.4332 22.1309 60.0398 21.8809 59.5341C21.6337 59.0284 21.5101 58.4375 21.5101 57.7614C21.5101 57.0795 21.6337 56.4844 21.8809 55.9759C22.1309 55.4673 22.4775 55.0724 22.9206 54.7912C23.3667 54.5099 23.8851 54.3693 24.476 54.3693C25.0669 54.3693 25.584 54.5099 26.0272 54.7912C26.4732 55.0724 26.8198 55.4673 27.0669 55.9759C27.3169 56.4844 27.4419 57.0795 27.4419 57.7614C27.4419 58.4375 27.3169 59.0284 27.0669 59.5341C26.8198 60.0398 26.4732 60.4332 26.0272 60.7145C25.584 60.9957 25.0669 61.1364 24.476 61.1364ZM24.476 60.233C24.9249 60.233 25.2942 60.1179 25.584 59.8878C25.8738 59.6577 26.0882 59.3551 26.2275 58.9801C26.3667 58.6051 26.4363 58.1989 26.4363 57.7614C26.4363 57.3239 26.3667 56.9162 26.2275 56.5384C26.0882 56.1605 25.8738 55.8551 25.584 55.6222C25.2942 55.3892 24.9249 55.2727 24.476 55.2727C24.0272 55.2727 23.6578 55.3892 23.3681 55.6222C23.0783 55.8551 22.8638 56.1605 22.7246 56.5384C22.5854 56.9162 22.5158 57.3239 22.5158 57.7614C22.5158 58.1989 22.5854 58.6051 22.7246 58.9801C22.8638 59.3551 23.0783 59.6577 23.3681 59.8878C23.6578 60.1179 24.0272 60.233 24.476 60.233ZM28.9771 61V54.4545H29.9487V55.4432H30.0169C30.1362 55.1193 30.3521 54.8565 30.6646 54.6548C30.9771 54.4531 31.3294 54.3523 31.7214 54.3523C31.7953 54.3523 31.8876 54.3537 31.9984 54.3565C32.1092 54.3594 32.193 54.3636 32.2498 54.3693V55.392C32.2157 55.3835 32.1376 55.3707 32.0154 55.3537C31.8961 55.3338 31.7697 55.3239 31.6362 55.3239C31.318 55.3239 31.0339 55.3906 30.7839 55.5241C30.5368 55.6548 30.3407 55.8366 30.1958 56.0696C30.0538 56.2997 29.9828 56.5625 29.9828 56.858V61H28.9771ZM36.6987 54.4545V55.3068H33.3066V54.4545H36.6987ZM34.2953 52.8864H35.301V59.125C35.301 59.4091 35.3422 59.6222 35.4245 59.7642C35.5098 59.9034 35.6177 59.9972 35.7484 60.0455C35.8819 60.0909 36.0225 60.1136 36.1703 60.1136C36.2811 60.1136 36.372 60.108 36.443 60.0966C36.514 60.0824 36.5708 60.071 36.6135 60.0625L36.818 60.9659C36.7498 60.9915 36.6547 61.017 36.5325 61.0426C36.4103 61.071 36.2555 61.0852 36.068 61.0852C35.7839 61.0852 35.5055 61.0241 35.2328 60.902C34.9629 60.7798 34.7385 60.5938 34.5595 60.3438C34.3833 60.0938 34.2953 59.7784 34.2953 59.3977V52.8864Z" fill="#626260"/>
</svg>
