<svg width="132" height="64" viewBox="0 0 132 64" fill="none" xmlns="http://www.w3.org/2000/svg">
<path d="M72.2669 28.7296C71.219 28.7296 70.2965 28.4861 69.4994 27.999C68.7024 27.4971 68.0825 26.8034 67.6397 25.9178C67.1969 25.0175 66.9755 23.9769 66.9755 22.7961C66.9755 21.63 67.1969 20.6042 67.6397 19.7186C68.0825 18.833 68.7024 18.1393 69.4994 17.6375C70.2965 17.1209 71.219 16.8626 72.2669 16.8626C73.5363 16.8626 74.5695 17.202 75.3665 17.881C76.1636 18.56 76.6507 19.416 76.8278 20.4492H75.1009C74.9975 19.8588 74.7023 19.3644 74.2153 18.9659C73.7282 18.5673 73.0787 18.3681 72.2669 18.3681C71.5585 18.3681 70.9312 18.5526 70.385 18.9216C69.8389 19.2906 69.4109 19.8072 69.1009 20.4714C68.791 21.1356 68.636 21.9105 68.636 22.7961C68.636 24.1392 68.9755 25.2093 69.6544 26.0064C70.3334 26.8034 71.2042 27.2019 72.2669 27.2019C73.0935 27.2019 73.7503 27.0174 74.2374 26.6484C74.7245 26.2647 75.0197 25.7628 75.123 25.1429H76.8278C76.6654 26.1614 76.1783 27.0174 75.3665 27.7112C74.5695 28.3901 73.5363 28.7296 72.2669 28.7296ZM79.468 28.4418V12.3903H81.1063V28.4418H79.468ZM89.2632 28.7296C88.1562 28.7296 87.1968 28.4861 86.385 27.999C85.5879 27.5119 84.968 26.8256 84.5252 25.94C84.0972 25.0544 83.8832 24.0064 83.8832 22.7961C83.8832 21.6448 84.0898 20.6264 84.5031 19.7408C84.9311 18.8404 85.5437 18.1393 86.3407 17.6375C87.1377 17.1209 88.0824 16.8626 89.1746 16.8626C90.2373 16.8626 91.1303 17.0987 91.8536 17.571C92.5768 18.0434 93.1229 18.7002 93.4919 19.5415C93.8757 20.3681 94.0676 21.3348 94.0676 22.4418V23.3274H85.5658C85.6544 24.582 86.016 25.5488 86.6507 26.2278C87.3001 26.892 88.1709 27.2241 89.2632 27.2241C89.9864 27.2241 90.599 27.0912 91.1008 26.8256C91.6174 26.5599 91.9495 26.2204 92.0971 25.8071H93.824C93.5583 26.7075 93.0122 27.4233 92.1857 27.9547C91.3591 28.4713 90.3849 28.7296 89.2632 28.7296ZM89.1746 18.3681C88.1562 18.3681 87.337 18.6854 86.7171 19.3201C86.0972 19.9548 85.7208 20.8182 85.5879 21.9105H92.4071C92.3775 20.8625 92.0897 20.0138 91.5436 19.3644C90.9975 18.7002 90.2078 18.3681 89.1746 18.3681ZM101.589 28.4418H99.9061L95.4338 17.1504H97.2936L100.792 26.5156L104.29 17.1504H106.061L101.589 28.4418ZM112.787 28.7296C111.68 28.7296 110.721 28.4861 109.909 27.999C109.112 27.5119 108.492 26.8256 108.049 25.94C107.621 25.0544 107.407 24.0064 107.407 22.7961C107.407 21.6448 107.614 20.6264 108.027 19.7408C108.455 18.8404 109.067 18.1393 109.864 17.6375C110.661 17.1209 111.606 16.8626 112.698 16.8626C113.761 16.8626 114.654 17.0987 115.377 17.571C116.101 18.0434 116.647 18.7002 117.016 19.5415C117.399 20.3681 117.591 21.3348 117.591 22.4418V23.3274H109.09C109.178 24.582 109.54 25.5488 110.174 26.2278C110.824 26.892 111.695 27.2241 112.787 27.2241C113.51 27.2241 114.123 27.0912 114.625 26.8256C115.141 26.5599 115.473 26.2204 115.621 25.8071H117.348C117.082 26.7075 116.536 27.4233 115.709 27.9547C114.883 28.4713 113.909 28.7296 112.787 28.7296ZM112.698 18.3681C111.68 18.3681 110.861 18.6854 110.241 19.3201C109.621 19.9548 109.245 20.8182 109.112 21.9105H115.931C115.901 20.8625 115.613 20.0138 115.067 19.3644C114.521 18.7002 113.732 18.3681 112.698 18.3681ZM122.035 22.6854V28.4418H120.397V17.1504H121.991V19.2315C122.345 18.5526 122.817 18.0286 123.408 17.6596C123.998 17.2906 124.648 17.1061 125.356 17.1061H125.666V18.678H125.312C124.736 18.678 124.197 18.8256 123.696 19.1208C123.208 19.416 122.81 19.8662 122.5 20.4714C122.19 21.0618 122.035 21.7998 122.035 22.6854Z" fill="#626260"/>
<path d="M73.1882 49.1765C72.0074 49.1765 70.9816 48.9182 70.1107 48.4016C69.2547 47.8702 68.5905 47.147 68.1181 46.2318C67.6458 45.3167 67.4097 44.2614 67.4097 43.0658C67.4097 41.885 67.6458 40.8371 68.1181 39.9219C68.5905 39.0068 69.2547 38.291 70.1107 37.7744C70.9816 37.243 72.0074 36.9773 73.1882 36.9773C74.1919 36.9773 75.0553 37.1766 75.7786 37.5751C76.5166 37.9589 77.107 38.4828 77.5498 39.147C77.9926 39.7965 78.2583 40.5197 78.3468 41.3168H74.9373C74.8635 40.9035 74.679 40.5714 74.3838 40.3205C74.1033 40.0548 73.69 39.9219 73.1439 39.9219C72.465 39.9219 71.9041 40.2098 71.4613 40.7854C71.0332 41.3463 70.8192 42.1064 70.8192 43.0658C70.8192 44.0547 71.0332 44.8296 71.4613 45.3905C71.9041 45.9514 72.465 46.2318 73.1439 46.2318C73.69 46.2318 74.1107 46.1138 74.4059 45.8776C74.7159 45.6414 74.9077 45.3167 74.9815 44.9034H78.3468C78.2583 45.7005 77.9926 46.4237 77.5498 47.0732C77.107 47.7226 76.5166 48.2392 75.7786 48.623C75.0553 48.992 74.1919 49.1765 73.1882 49.1765ZM85.5797 49.1765C84.4284 49.1765 83.41 48.9182 82.5244 48.4016C81.6388 47.885 80.945 47.1691 80.4432 46.254C79.9414 45.3241 79.6904 44.2614 79.6904 43.0658C79.6904 41.8703 79.9414 40.8149 80.4432 39.8998C80.945 38.9847 81.6388 38.2688 82.5244 37.7522C83.41 37.2356 84.4284 36.9773 85.5797 36.9773C86.7457 36.9773 87.7715 37.2356 88.6571 37.7522C89.5427 38.2688 90.2365 38.9847 90.7383 39.8998C91.2401 40.8149 91.4911 41.8703 91.4911 43.0658C91.4911 44.2614 91.2401 45.3241 90.7383 46.254C90.2365 47.1691 89.5427 47.885 88.6571 48.4016C87.7715 48.9182 86.7457 49.1765 85.5797 49.1765ZM85.5797 46.2318C86.3177 46.2318 86.9155 45.9514 87.373 45.3905C87.8453 44.8149 88.0815 44.04 88.0815 43.0658C88.0815 42.0917 87.8453 41.3241 87.373 40.7633C86.9155 40.2024 86.3177 39.9219 85.5797 39.9219C84.8564 39.9219 84.2587 40.2024 83.7863 40.7633C83.3288 41.3241 83.1 42.0917 83.1 43.0658C83.1 44.04 83.3288 44.8149 83.7863 45.3905C84.2587 45.9514 84.8564 46.2318 85.5797 46.2318Z" fill="#626260"/>
<path d="M98.8831 43.2429V48.8444H95.5179V37.3094H98.7282V39.1692C99.0824 38.5493 99.5252 38.0696 100.057 37.7301C100.603 37.3906 101.223 37.2209 101.916 37.2209H102.426V40.3647H101.806C100.95 40.3647 100.248 40.623 99.7023 41.1396C99.1562 41.6562 98.8831 42.3573 98.8831 43.2429Z" fill="#626260"/>
<path d="M109.944 49.1765C108.129 49.1765 106.705 48.6303 105.671 47.5381C104.638 46.4311 104.122 44.9256 104.122 43.0215C104.122 41.8703 104.35 40.8371 104.808 39.9219C105.28 39.0068 105.944 38.291 106.801 37.7744C107.657 37.243 108.682 36.9773 109.878 36.9773C111.605 36.9773 112.933 37.5308 113.863 38.6378C114.793 39.7301 115.258 41.2134 115.258 43.088V44.1507H107.465C107.716 45.7448 108.55 46.5418 109.967 46.5418C110.439 46.5418 110.823 46.468 111.118 46.3204C111.413 46.1728 111.62 45.9957 111.738 45.789H115.081C114.8 46.8222 114.21 47.6488 113.31 48.2687C112.409 48.8739 111.288 49.1765 109.944 49.1765ZM109.856 39.612C108.513 39.612 107.716 40.3647 107.465 41.8703H112.026C111.996 41.2061 111.797 40.6673 111.428 40.254C111.074 39.826 110.55 39.612 109.856 39.612Z" fill="#626260"/>
<path d="M48.7812 24.5317L48.7596 0H0.808594V63.3621H48.7812V36.7922H38.3505V53.1397H11.2393V10.2224H38.3505V24.5317H48.7812Z" fill="#16C3C3"/>
<path d="M38.3502 24.5317H25.8398V38.8409H38.3502V24.5317Z" fill="#16C3C3"/>
</svg>
