<svg width="184" height="42" viewBox="0 0 184 42" fill="none" xmlns="http://www.w3.org/2000/svg">
<path d="M53.2539 32.6605V8.87354H56.1724V18.4891C56.7631 17.5249 57.5275 16.7736 58.4699 16.2263C59.408 15.6791 60.4808 15.4055 61.6838 15.4055C63.1691 15.4055 64.4764 15.7834 65.6056 16.539C66.7304 17.2947 67.6121 18.3327 68.2462 19.6574C68.8803 20.982 69.1973 22.5194 69.1973 24.2697C69.1973 26.02 68.8803 27.527 68.2462 28.8647C67.6121 30.198 66.7304 31.2447 65.6056 32.0004C64.4807 32.7561 63.1735 33.1339 61.6838 33.1339C60.4373 33.1339 59.3429 32.8516 58.4048 32.2827C57.4623 31.7137 56.698 30.9363 56.1073 29.9548V32.6779H53.2539V32.6605ZM61.1626 30.4282C62.648 30.4282 63.864 29.8636 64.8065 28.7387C65.7489 27.6139 66.218 26.1199 66.218 24.261C66.218 22.4022 65.7489 20.9082 64.8065 19.7833C63.864 18.6585 62.6523 18.0939 61.1626 18.0939C59.673 18.0939 58.4222 18.6628 57.471 19.8007C56.5199 20.9386 56.0422 22.4239 56.0422 24.2654C56.0422 26.1068 56.5199 27.5922 57.471 28.7257C58.4222 29.8636 59.6512 30.4325 61.1626 30.4325V30.4282Z" fill="#686868"/>
<path d="M80.1296 33.1206C78.4662 33.1206 77.0286 32.7602 75.8169 32.0392C74.6008 31.3183 73.6671 30.289 73.0113 28.9556C72.3555 27.6223 72.0254 26.0458 72.0254 24.2304C72.0254 22.5236 72.3468 21.0078 72.9939 19.6875C73.6367 18.3629 74.5574 17.3206 75.7517 16.5518C76.9461 15.7875 78.3706 15.4053 80.034 15.4053C81.6974 15.4053 82.9743 15.7614 84.0687 16.4693C85.1632 17.1816 85.9927 18.1631 86.5616 19.4226C87.1306 20.6821 87.4129 22.15 87.4129 23.8352V25.2119H75.0438C75.1958 26.9187 75.7127 28.226 76.5856 29.1337C77.4586 30.0414 78.6529 30.4974 80.1643 30.4974C81.1502 30.4974 81.984 30.328 82.6746 29.9893C83.3651 29.6505 83.8168 29.2075 84.0383 28.6603H87.0568C86.6615 30.0153 85.8407 31.1011 84.5942 31.9089C83.3478 32.7167 81.8581 33.125 80.1339 33.125L80.1296 33.1206ZM79.9993 18.0285C78.6225 18.0285 77.5107 18.4498 76.6681 19.2923C75.8256 20.1349 75.3044 21.2988 75.109 22.7885H84.4596C84.3944 21.3683 83.9949 20.2174 83.2609 19.3444C82.5269 18.4671 81.4412 18.0328 79.9949 18.0328L79.9993 18.0285Z" fill="#686868"/>
<path d="M98.504 33.1549C96.7537 33.1549 95.238 32.764 93.9611 31.9909C92.6799 31.2135 91.6897 30.1495 90.9905 28.7901C90.2912 27.4351 89.9395 25.8716 89.9395 24.0996C89.9395 22.3276 90.2912 20.7945 90.9905 19.4395C91.6897 18.0844 92.6799 17.0161 93.9611 16.2386C95.2423 15.4612 96.7537 15.0747 98.504 15.0747C99.9893 15.0747 101.275 15.3657 102.361 15.9433C103.442 16.5209 104.311 17.2984 104.971 18.2712C105.627 19.244 106.022 20.3211 106.152 21.5024H101.097C100.988 20.8901 100.719 20.3906 100.293 20.0084C99.8677 19.6262 99.2466 19.4352 98.4388 19.4352C97.4312 19.4352 96.6061 19.8564 95.9633 20.699C95.3162 21.5415 94.9948 22.6751 94.9948 24.0953C94.9948 25.5154 95.3162 26.7098 95.9633 27.5393C96.6104 28.3688 97.4356 28.7858 98.4388 28.7858C99.2466 28.7858 99.8764 28.612 100.324 28.2603C100.771 27.9085 101.049 27.4307 101.162 26.8184H106.148C106.017 27.9997 105.622 29.0724 104.966 30.0322C104.311 30.9964 103.442 31.7564 102.356 32.3123C101.275 32.8683 99.9893 33.1506 98.4996 33.1506L98.504 33.1549Z" fill="#686868"/>
<path d="M109.066 32.6605V8.87354H114.052V32.6605H109.066Z" fill="#686868"/>
<path d="M125.706 33.1553C123.013 33.1553 120.902 32.3388 119.374 30.7102C117.841 29.0815 117.076 26.8535 117.076 24.0306C117.076 22.3237 117.419 20.795 118.11 19.4356C118.8 18.0806 119.778 17.0121 121.046 16.2347C122.314 15.4573 123.834 15.0708 125.606 15.0708C128.164 15.0708 130.136 15.8873 131.513 17.516C132.889 19.1446 133.58 21.3509 133.58 24.1261V25.7026H122.032C122.405 28.0653 123.639 29.2466 125.741 29.2466C126.44 29.2466 127.009 29.138 127.447 28.9209C127.886 28.7037 128.19 28.4388 128.368 28.1348H133.324C132.907 29.6679 132.034 30.8839 130.696 31.7916C129.363 32.6993 127.699 33.1553 125.71 33.1553H125.706ZM125.576 18.9796C123.586 18.9796 122.405 20.0957 122.032 22.3281H128.789C128.746 21.3422 128.455 20.5387 127.921 19.9177C127.387 19.2923 126.605 18.9839 125.576 18.9839V18.9796Z" fill="#686868"/>
<path d="M146.307 32.6597H141.091L134.494 15.5654H140.171L143.91 27.0181L147.619 15.5654H152.935L146.307 32.6597Z" fill="#686868"/>
<path d="M162.19 33.1553C159.498 33.1553 157.387 32.3388 155.858 30.7102C154.325 29.0815 153.561 26.8535 153.561 24.0306C153.561 22.3237 153.904 20.795 154.594 19.4356C155.285 18.0806 156.262 17.0121 157.53 16.2347C158.798 15.4573 160.318 15.0708 162.09 15.0708C164.648 15.0708 166.62 15.8873 167.997 17.516C169.374 19.1446 170.064 21.3509 170.064 24.1261V25.7026H158.516C158.885 28.0653 160.123 29.2466 162.225 29.2466C162.924 29.2466 163.493 29.138 163.932 28.9209C164.37 28.7037 164.674 28.4388 164.853 28.1348H169.808C169.391 29.6679 168.518 30.8839 167.185 31.7916C165.851 32.6993 164.188 33.1553 162.199 33.1553H162.19ZM162.06 18.9796C160.071 18.9796 158.889 20.0957 158.516 22.3281H165.274C165.23 21.3422 164.939 20.5387 164.405 19.9177C163.871 19.2923 163.085 18.9839 162.06 18.9839V18.9796Z" fill="#686868"/>
<path d="M178.14 24.3605V32.6601H173.154V15.5658H177.914V18.3193C178.44 17.4029 179.1 16.6906 179.899 16.1868C180.698 15.683 181.61 15.4312 182.64 15.4312H183.395V20.0913H182.479C181.211 20.0913 180.173 20.4735 179.361 21.2378C178.553 22.0022 178.144 23.0445 178.144 24.3562L178.14 24.3605Z" fill="#686868"/>
<path d="M25.241 34.9094H7.77708V7.09032H25.241V15.9963H32.3745V0H0.605469V41.9997H32.3703V24.9653H25.2367V34.9094H25.241ZM25.2367 24.8434V16.072H16.5851V24.8434H25.2367Z" fill="url(#paint0_linear_10201_21395)"/>
<defs>
<linearGradient id="paint0_linear_10201_21395" x1="42.1763" y1="-7.96873" x2="-5.92633" y2="46.9382" gradientUnits="userSpaceOnUse">
<stop offset="0.06" stop-color="#4FFFFF"/>
<stop offset="0.68" stop-color="#065CD7"/>
</linearGradient>
</defs>
</svg>
