<svg width="150" height="60" viewBox="0 0 150 60" fill="none" xmlns="http://www.w3.org/2000/svg">
<path d="M66.89 28.2978C65.842 28.2978 64.9195 28.0543 64.1225 27.5672C63.3254 27.0654 62.7055 26.3716 62.2627 25.486C61.8199 24.5857 61.5985 23.5451 61.5985 22.3643C61.5985 21.1983 61.8199 20.1724 62.2627 19.2868C62.7055 18.4012 63.3254 17.7075 64.1225 17.2057C64.9195 16.6891 65.842 16.4308 66.89 16.4308C68.1593 16.4308 69.1925 16.7703 69.9896 17.4492C70.7866 18.1282 71.2737 18.9843 71.4508 20.0175H69.7239C69.6206 19.4271 69.3254 18.9326 68.8383 18.5341C68.3512 18.1356 67.7018 17.9363 66.89 17.9363C66.1815 17.9363 65.5542 18.1208 65.0081 18.4898C64.462 18.8588 64.0339 19.3754 63.724 20.0396C63.414 20.7038 63.259 21.4787 63.259 22.3643C63.259 23.7075 63.5985 24.7776 64.2775 25.5746C64.9564 26.3716 65.8273 26.7702 66.89 26.7702C67.7165 26.7702 68.3734 26.5857 68.8604 26.2167C69.3475 25.8329 69.6427 25.3311 69.746 24.7111H71.4508C71.2885 25.7296 70.8014 26.5857 69.9896 27.2794C69.1925 27.9583 68.1593 28.2978 66.89 28.2978ZM74.091 28.01V11.9585H75.7294V28.01H74.091ZM83.8862 28.2978C82.7792 28.2978 81.8198 28.0543 81.008 27.5672C80.211 27.0801 79.5911 26.3938 79.1483 25.5082C78.7202 24.6226 78.5062 23.5746 78.5062 22.3643C78.5062 21.213 78.7129 20.1946 79.1261 19.309C79.5542 18.4086 80.1667 17.7075 80.9638 17.2057C81.7608 16.6891 82.7054 16.4308 83.7977 16.4308C84.8604 16.4308 85.7534 16.6669 86.4766 17.1393C87.1999 17.6116 87.746 18.2684 88.115 19.1097C88.4987 19.9363 88.6906 20.9031 88.6906 22.0101V22.8957H80.1889C80.2774 24.1503 80.639 25.117 81.2737 25.796C81.9232 26.4602 82.794 26.7923 83.8862 26.7923C84.6095 26.7923 85.222 26.6595 85.7239 26.3938C86.2405 26.1281 86.5726 25.7886 86.7202 25.3753H88.4471C88.1814 26.2757 87.6353 26.9916 86.8087 27.5229C85.9822 28.0395 85.008 28.2978 83.8862 28.2978ZM83.7977 17.9363C82.7792 17.9363 81.9601 18.2536 81.3401 18.8883C80.7202 19.523 80.3438 20.3865 80.211 21.4787H87.0301C87.0006 20.4307 86.7128 19.582 86.1667 18.9326C85.6205 18.2684 84.8309 17.9363 83.7977 17.9363ZM96.2118 28.01H94.5292L90.0569 16.7186H91.9167L95.4148 26.0838L98.9129 16.7186H100.684L96.2118 28.01ZM107.41 28.2978C106.303 28.2978 105.344 28.0543 104.532 27.5672C103.735 27.0801 103.115 26.3938 102.672 25.5082C102.244 24.6226 102.03 23.5746 102.03 22.3643C102.03 21.213 102.237 20.1946 102.65 19.309C103.078 18.4086 103.69 17.7075 104.488 17.2057C105.285 16.6891 106.229 16.4308 107.321 16.4308C108.384 16.4308 109.277 16.6669 110 17.1393C110.724 17.6116 111.27 18.2684 111.639 19.1097C112.022 19.9363 112.214 20.9031 112.214 22.0101V22.8957H103.713C103.801 24.1503 104.163 25.117 104.797 25.796C105.447 26.4602 106.318 26.7923 107.41 26.7923C108.133 26.7923 108.746 26.6595 109.248 26.3938C109.764 26.1281 110.096 25.7886 110.244 25.3753H111.971C111.705 26.2757 111.159 26.9916 110.332 27.5229C109.506 28.0395 108.532 28.2978 107.41 28.2978ZM107.321 17.9363C106.303 17.9363 105.484 18.2536 104.864 18.8883C104.244 19.523 103.868 20.3865 103.735 21.4787H110.554C110.524 20.4307 110.237 19.582 109.69 18.9326C109.144 18.2684 108.355 17.9363 107.321 17.9363ZM116.658 22.2536V28.01H115.02V16.7186H116.614V18.7998C116.968 18.1208 117.44 17.5968 118.031 17.2278C118.621 16.8588 119.271 16.6743 119.979 16.6743H120.289V18.2463H119.935C119.359 18.2463 118.82 18.3939 118.319 18.6891C117.832 18.9843 117.433 19.4344 117.123 20.0396C116.813 20.63 116.658 21.368 116.658 22.2536Z" fill="#626260"/>
<path d="M67.1917 48.1086C65.9961 48.1086 65.0662 47.7839 64.402 47.1344C63.7526 46.485 63.4279 45.533 63.4279 44.2784V39.3633H61.6567V36.4851H63.4279V33.1198C63.9887 33.0903 64.5496 33.0312 65.1105 32.9427C65.6861 32.8541 66.247 32.736 66.7931 32.5884V36.4851H68.8964V39.3633H66.7931V43.902C66.7931 44.3448 66.9038 44.6843 67.1252 44.9204C67.3466 45.1418 67.6492 45.2525 68.033 45.2525H68.8964V48.1086H67.1917Z" fill="#626260"/>
<path d="M74.3538 42.4186V48.02H70.9886V36.4851H74.1989V38.3448C74.5531 37.7249 74.9959 37.2452 75.5273 36.9057C76.0734 36.5663 76.6933 36.3965 77.387 36.3965H77.8962V39.5404H77.2763C76.4202 39.5404 75.7191 39.7987 75.173 40.3153C74.6269 40.8319 74.3538 41.533 74.3538 42.4186Z" fill="#626260"/>
<path d="M82.8151 48.3521C81.6048 48.3521 80.638 48.02 79.9147 47.3558C79.1915 46.6769 78.8299 45.7839 78.8299 44.6769C78.8299 43.4666 79.2653 42.5293 80.1361 41.8651C81.007 41.2009 82.2099 40.8688 83.745 40.8688H85.8483V40.4703C85.8483 39.8946 85.6859 39.474 85.3612 39.2083C85.0365 38.9279 84.5937 38.7876 84.0328 38.7876C83.5457 38.7876 83.1546 38.8836 82.8594 39.0755C82.5642 39.2526 82.3797 39.4592 82.3059 39.6954H79.1398C79.3317 38.6917 79.8557 37.8504 80.7118 37.1714C81.5679 36.4925 82.7118 36.153 84.1435 36.153C85.6785 36.153 86.8888 36.5294 87.7744 37.2821C88.6748 38.0349 89.125 39.2231 89.125 40.8467V48.02H86.0697V46.7138C85.7154 47.2894 85.2357 47.7101 84.6306 47.9757C84.0402 48.2267 83.435 48.3521 82.8151 48.3521ZM83.7007 45.7396C84.0402 45.7396 84.3723 45.6658 84.697 45.5182C85.0365 45.3706 85.3095 45.1566 85.5162 44.8761C85.7376 44.5809 85.8483 44.2193 85.8483 43.7913V43.1271H83.8999C83.3095 43.1271 82.852 43.2452 82.5273 43.4813C82.2173 43.7027 82.0623 44.0274 82.0623 44.4555C82.0623 44.8688 82.2173 45.1861 82.5273 45.4075C82.8372 45.6289 83.2284 45.7396 83.7007 45.7396ZM96.848 48.3521C95.6672 48.3521 94.6414 48.0938 93.7706 47.5772C92.9145 47.0459 92.2503 46.3226 91.778 45.4075C91.3057 44.4924 91.0695 43.437 91.0695 42.2415C91.0695 41.0607 91.3057 40.0127 91.778 39.0976C92.2503 38.1825 92.9145 37.4666 93.7706 36.95C94.6414 36.4187 95.6672 36.153 96.848 36.153C97.8517 36.153 98.7152 36.3522 99.4384 36.7508C100.176 37.1345 100.767 37.6585 101.21 38.3227C101.652 38.9721 101.918 39.6954 102.007 40.4924H98.5971C98.5233 40.0791 98.3388 39.747 98.0436 39.4961C97.7632 39.2304 97.3499 39.0976 96.8038 39.0976C96.1248 39.0976 95.5639 39.3854 95.1211 39.9611C94.6931 40.5219 94.4791 41.2821 94.4791 42.2415C94.4791 43.2304 94.6931 44.0053 95.1211 44.5662C95.5639 45.1271 96.1248 45.4075 96.8038 45.4075C97.3499 45.4075 97.7705 45.2894 98.0657 45.0533C98.3757 44.8171 98.5676 44.4924 98.6414 44.0791H102.007C101.918 44.8761 101.652 45.5994 101.21 46.2488C100.767 46.8983 100.176 47.4149 99.4384 47.7986C98.7152 48.1676 97.8517 48.3521 96.848 48.3521ZM103.97 48.02V31.9685H107.335V40.9352L111.166 36.4851H115.129L110.369 41.9094L115.372 48.02H111.21L107.335 43.1049V48.02H103.97ZM118.474 35.3559C117.928 35.3559 117.456 35.1641 117.057 34.7803C116.673 34.3818 116.482 33.9095 116.482 33.3633C116.482 32.8025 116.673 32.3301 117.057 31.9464C117.456 31.5626 117.928 31.3707 118.474 31.3707C119.035 31.3707 119.507 31.5626 119.891 31.9464C120.29 32.3301 120.489 32.8025 120.489 33.3633C120.489 33.9095 120.29 34.3818 119.891 34.7803C119.507 35.1641 119.035 35.3559 118.474 35.3559ZM116.792 48.02V36.4851H120.157V48.02H116.792ZM126.211 41.2895V48.02H122.845V36.4851H126.056V37.7692C126.897 36.6917 128.034 36.153 129.465 36.153C130.69 36.153 131.665 36.5884 132.388 37.4592C133.111 38.3153 133.473 39.4592 133.473 40.8909V48.02H130.107V41.3337C130.107 40.6695 129.952 40.1382 129.642 39.7397C129.332 39.3411 128.853 39.1419 128.203 39.1419C127.613 39.1419 127.133 39.3411 126.764 39.7397C126.395 40.1234 126.211 40.64 126.211 41.2895ZM140.462 47.8872C139.473 47.8872 138.595 47.6363 137.828 47.1344C137.075 46.6326 136.484 45.9389 136.056 45.0533C135.628 44.1677 135.414 43.1566 135.414 42.0201C135.414 40.8836 135.628 39.8725 136.056 38.9869C136.484 38.1013 137.075 37.4076 137.828 36.9057C138.595 36.4039 139.473 36.153 140.462 36.153C141.2 36.153 141.85 36.3006 142.411 36.5958C142.971 36.891 143.444 37.2895 143.828 37.7913V36.4851H147.038V47.5108C147.038 49.2377 146.529 50.5661 145.51 51.496C144.507 52.4259 143.141 52.8908 141.414 52.8908C139.924 52.8908 138.669 52.544 137.65 51.8502C136.647 51.1713 136.02 50.2783 135.769 49.1713H139.222C139.385 49.4517 139.65 49.6731 140.019 49.8355C140.388 50.0126 140.824 50.1012 141.326 50.1012C142.078 50.1012 142.662 49.9167 143.075 49.5477C143.488 49.1787 143.695 48.5957 143.695 47.7986V46.4038C143.311 46.8614 142.846 47.223 142.3 47.4887C141.754 47.7543 141.141 47.8872 140.462 47.8872ZM141.304 44.9647C142.042 44.9647 142.647 44.6916 143.119 44.1455C143.606 43.5994 143.85 42.8835 143.85 41.9979C143.85 41.1271 143.606 40.4186 143.119 39.8725C142.647 39.3264 142.042 39.0533 141.304 39.0533C140.58 39.0533 139.983 39.3264 139.51 39.8725C139.053 40.4186 138.824 41.1271 138.824 41.9979C138.824 42.8835 139.053 43.5994 139.51 44.1455C139.983 44.6916 140.58 44.9647 141.304 44.9647Z" fill="#626260"/>
<path d="M44.52 23.23L44.5 0H0V60H44.52V34.84H34.84V50.32H9.68V9.67999H34.84V23.23H44.52Z" fill="#EA1C25"/>
<path d="M34.8405 21.29H23.2305V34.84H34.8405V21.29Z" fill="#EA1C25"/>
</svg>
