<svg width="176" height="60" viewBox="0 0 176 60" fill="none" xmlns="http://www.w3.org/2000/svg">
<path d="M67.9581 49.2421C66.8068 49.2421 65.7884 48.9838 64.9028 48.4672C64.0172 47.9506 63.3234 47.2348 62.8216 46.3197C62.3198 45.3898 62.0688 44.3271 62.0688 43.1315C62.0688 41.9359 62.3198 40.8806 62.8216 39.9655C63.3234 39.0504 64.0172 38.3345 64.9028 37.8179C65.7884 37.3013 66.8068 37.043 67.9581 37.043C69.1241 37.043 70.1499 37.3013 71.0355 37.8179C71.9211 38.3345 72.6149 39.0504 73.1167 39.9655C73.6185 40.8806 73.8695 41.9359 73.8695 43.1315C73.8695 44.3271 73.6185 45.3898 73.1167 46.3197C72.6149 47.2348 71.9211 47.9506 71.0355 48.4672C70.1499 48.9838 69.1241 49.2421 67.9581 49.2421ZM67.9581 46.2975C68.6961 46.2975 69.2939 46.0171 69.7514 45.4562C70.2237 44.8806 70.4599 44.1057 70.4599 43.1315C70.4599 42.1573 70.2237 41.3898 69.7514 40.8289C69.2939 40.2681 68.6961 39.9876 67.9581 39.9876C67.2348 39.9876 66.6371 40.2681 66.1647 40.8289C65.7072 41.3898 65.4784 42.1573 65.4784 43.1315C65.4784 44.1057 65.7072 44.8806 66.1647 45.4562C66.6371 46.0171 67.2348 46.2975 67.9581 46.2975ZM79.2645 43.3086V48.91H75.8992V37.3751H79.1095V39.2349C79.4638 38.6149 79.9066 38.1352 80.4379 37.7958C80.9841 37.4563 81.604 37.2865 82.2977 37.2865H82.8069V40.4304H82.187C81.3309 40.4304 80.6298 40.6887 80.0837 41.2053C79.5376 41.7219 79.2645 42.423 79.2645 43.3086ZM86.3817 36.246C85.8355 36.246 85.3632 36.0541 84.9647 35.6703C84.5809 35.2718 84.3891 34.7995 84.3891 34.2534C84.3891 33.6925 84.5809 33.2202 84.9647 32.8364C85.3632 32.4526 85.8355 32.2608 86.3817 32.2608C86.9425 32.2608 87.4149 32.4526 87.7986 32.8364C88.1971 33.2202 88.3964 33.6925 88.3964 34.2534C88.3964 34.7995 88.1971 35.2718 87.7986 35.6703C87.4149 36.0541 86.9425 36.246 86.3817 36.246ZM84.699 48.91V37.3751H88.0643V48.91H84.699ZM95.1809 48.7772C94.192 48.7772 93.3138 48.5263 92.5463 48.0244C91.7935 47.5226 91.2031 46.8289 90.7751 45.9433C90.347 45.0577 90.133 44.0466 90.133 42.9101C90.133 41.7736 90.347 40.7625 90.7751 39.8769C91.2031 38.9913 91.7935 38.2976 92.5463 37.7958C93.3138 37.2939 94.192 37.043 95.1809 37.043C95.9189 37.043 96.5684 37.1906 97.1293 37.4858C97.6901 37.781 98.1625 38.1795 98.5462 38.6814V37.3751H101.757V48.4008C101.757 50.1277 101.247 51.4561 100.229 52.386C99.2252 53.3159 97.8599 53.7808 96.1329 53.7808C94.6422 53.7808 93.3876 53.434 92.3691 52.7403C91.3655 52.0613 90.7382 51.1683 90.4873 50.0613H93.9411C94.1035 50.3418 94.3691 50.5632 94.7381 50.7255C95.1071 50.9026 95.5426 50.9912 96.0444 50.9912C96.7972 50.9912 97.3802 50.8067 97.7935 50.4377C98.2067 50.0687 98.4134 49.4857 98.4134 48.6886V47.2938C98.0296 47.7514 97.5647 48.113 97.0186 48.3787C96.4724 48.6444 95.8599 48.7772 95.1809 48.7772ZM96.0223 45.8547C96.7603 45.8547 97.3654 45.5817 97.8377 45.0355C98.3248 44.4894 98.5684 43.7736 98.5684 42.888C98.5684 42.0171 98.3248 41.3086 97.8377 40.7625C97.3654 40.2164 96.7603 39.9433 96.0223 39.9433C95.299 39.9433 94.7012 40.2164 94.2289 40.7625C93.7714 41.3086 93.5426 42.0171 93.5426 42.888C93.5426 43.7736 93.7714 44.4894 94.2289 45.0355C94.7012 45.5817 95.299 45.8547 96.0223 45.8547ZM106.1 36.246C105.554 36.246 105.082 36.0541 104.683 35.6703C104.299 35.2718 104.108 34.7995 104.108 34.2534C104.108 33.6925 104.299 33.2202 104.683 32.8364C105.082 32.4526 105.554 32.2608 106.1 32.2608C106.661 32.2608 107.133 32.4526 107.517 32.8364C107.916 33.2202 108.115 33.6925 108.115 34.2534C108.115 34.7995 107.916 35.2718 107.517 35.6703C107.133 36.0541 106.661 36.246 106.1 36.246ZM104.417 48.91V37.3751H107.783V48.91H104.417ZM113.837 42.1795V48.91H110.471V37.3751H113.682V38.6592C114.523 37.5817 115.66 37.043 117.091 37.043C118.316 37.043 119.29 37.4784 120.014 38.3493C120.737 39.2053 121.099 40.3492 121.099 41.781V48.91H117.733V42.2238C117.733 41.5596 117.578 41.0282 117.268 40.6297C116.958 40.2312 116.479 40.0319 115.829 40.0319C115.239 40.0319 114.759 40.2312 114.39 40.6297C114.021 41.0134 113.837 41.53 113.837 42.1795ZM126.937 49.2421C125.727 49.2421 124.76 48.91 124.037 48.2458C123.313 47.5669 122.952 46.6739 122.952 45.5669C122.952 44.3566 123.387 43.4193 124.258 42.7551C125.129 42.0909 126.332 41.7588 127.867 41.7588H129.97V41.3603C129.97 40.7847 129.808 40.364 129.483 40.0983C129.158 39.8179 128.716 39.6777 128.155 39.6777C127.668 39.6777 127.276 39.7736 126.981 39.9655C126.686 40.1426 126.502 40.3492 126.428 40.5854H123.262C123.454 39.5817 123.978 38.7404 124.834 38.0614C125.69 37.3825 126.834 37.043 128.265 37.043C129.8 37.043 131.011 37.4194 131.896 38.1721C132.797 38.9249 133.247 40.1131 133.247 41.7367V48.91H130.192V47.6038C129.837 48.1794 129.358 48.6001 128.752 48.8658C128.162 49.1167 127.557 49.2421 126.937 49.2421ZM127.823 46.6296C128.162 46.6296 128.494 46.5558 128.819 46.4082C129.158 46.2606 129.431 46.0466 129.638 45.7662C129.859 45.471 129.97 45.1093 129.97 44.6813V44.0171H128.022C127.431 44.0171 126.974 44.1352 126.649 44.3713C126.339 44.5927 126.184 44.9175 126.184 45.3455C126.184 45.7588 126.339 46.0761 126.649 46.2975C126.959 46.5189 127.35 46.6296 127.823 46.6296ZM140.394 48.9986C139.199 48.9986 138.269 48.6739 137.605 48.0244C136.955 47.375 136.63 46.423 136.63 45.1684V40.2533H134.859V37.3751H136.63V34.0098C137.191 33.9803 137.752 33.9213 138.313 33.8327C138.889 33.7441 139.45 33.6261 139.996 33.4785V37.3751H142.099V40.2533H139.996V44.792C139.996 45.2348 140.106 45.5743 140.328 45.8104C140.549 46.0318 140.852 46.1425 141.236 46.1425H142.099V48.9986H140.394ZM145.861 36.246C145.315 36.246 144.843 36.0541 144.444 35.6703C144.061 35.2718 143.869 34.7995 143.869 34.2534C143.869 33.6925 144.061 33.2202 144.444 32.8364C144.843 32.4526 145.315 32.2608 145.861 32.2608C146.422 32.2608 146.894 32.4526 147.278 32.8364C147.677 33.2202 147.876 33.6925 147.876 34.2534C147.876 34.7995 147.677 35.2718 147.278 35.6703C146.894 36.0541 146.422 36.246 145.861 36.246ZM144.179 48.91V37.3751H147.544V48.91H144.179ZM155.502 49.2421C154.351 49.2421 153.332 48.9838 152.447 48.4672C151.561 47.9506 150.867 47.2348 150.365 46.3197C149.864 45.3898 149.613 44.3271 149.613 43.1315C149.613 41.9359 149.864 40.8806 150.365 39.9655C150.867 39.0504 151.561 38.3345 152.447 37.8179C153.332 37.3013 154.351 37.043 155.502 37.043C156.668 37.043 157.694 37.3013 158.579 37.8179C159.465 38.3345 160.159 39.0504 160.66 39.9655C161.162 40.8806 161.413 41.9359 161.413 43.1315C161.413 44.3271 161.162 45.3898 160.66 46.3197C160.159 47.2348 159.465 47.9506 158.579 48.4672C157.694 48.9838 156.668 49.2421 155.502 49.2421ZM155.502 46.2975C156.24 46.2975 156.838 46.0171 157.295 45.4562C157.768 44.8806 158.004 44.1057 158.004 43.1315C158.004 42.1573 157.768 41.3898 157.295 40.8289C156.838 40.2681 156.24 39.9876 155.502 39.9876C154.779 39.9876 154.181 40.2681 153.709 40.8289C153.251 41.3898 153.022 42.1573 153.022 43.1315C153.022 44.1057 153.251 44.8806 153.709 45.4562C154.181 46.0171 154.779 46.2975 155.502 46.2975ZM166.808 42.1795V48.91H163.443V37.3751H166.653V38.6592C167.495 37.5817 168.631 37.043 170.063 37.043C171.288 37.043 172.262 37.4784 172.985 38.3493C173.709 39.2053 174.07 40.3492 174.07 41.781V48.91H170.705V42.2238C170.705 41.5596 170.55 41.0282 170.24 40.6297C169.93 40.2312 169.45 40.0319 168.801 40.0319C168.211 40.0319 167.731 40.2312 167.362 40.6297C166.993 41.0134 166.808 41.53 166.808 42.1795Z" fill="#626260"/>
<path d="M67.5902 30.2678C66.5422 30.2678 65.6197 30.0243 64.8227 29.5372C64.0256 29.0353 63.4057 28.3416 62.9629 27.456C62.5201 26.5557 62.2987 25.5151 62.2987 24.3343C62.2987 23.1682 62.5201 22.1424 62.9629 21.2568C63.4057 20.3712 64.0256 19.6775 64.8227 19.1757C65.6197 18.6591 66.5422 18.4008 67.5902 18.4008C68.8595 18.4008 69.8927 18.7402 70.6898 19.4192C71.4868 20.0982 71.9739 20.9542 72.151 21.9874H70.4241C70.3208 21.397 70.0256 20.9026 69.5385 20.5041C69.0514 20.1055 68.402 19.9063 67.5902 19.9063C66.8817 19.9063 66.2544 20.0908 65.7083 20.4598C65.1622 20.8288 64.7341 21.3454 64.4242 22.0096C64.1142 22.6738 63.9592 23.4487 63.9592 24.3343C63.9592 25.6774 64.2987 26.7475 64.9777 27.5446C65.6566 28.3416 66.5275 28.7401 67.5902 28.7401C68.4167 28.7401 69.0736 28.5556 69.5606 28.1866C70.0477 27.8029 70.3429 27.301 70.4462 26.6811H72.151C71.9887 27.6996 71.5016 28.5556 70.6898 29.2494C69.8927 29.9283 68.8595 30.2678 67.5902 30.2678ZM74.7912 29.98V13.9285H76.4296V29.98H74.7912ZM84.5864 30.2678C83.4794 30.2678 82.52 30.0243 81.7082 29.5372C80.9112 29.0501 80.2913 28.3638 79.8485 27.4782C79.4204 26.5926 79.2064 25.5446 79.2064 24.3343C79.2064 23.183 79.413 22.1646 79.8263 21.279C80.2544 20.3786 80.8669 19.6775 81.6639 19.1757C82.461 18.6591 83.4056 18.4008 84.4979 18.4008C85.5606 18.4008 86.4536 18.6369 87.1768 19.1092C87.9 19.5816 88.4462 20.2384 88.8152 21.0797C89.1989 21.9063 89.3908 22.873 89.3908 23.98V24.8656H80.889C80.9776 26.1202 81.3392 27.087 81.9739 27.766C82.6233 28.4302 83.4942 28.7623 84.5864 28.7623C85.3097 28.7623 85.9222 28.6294 86.424 28.3638C86.9406 28.0981 87.2727 27.7586 87.4203 27.3453H89.1473C88.8816 28.2457 88.3355 28.9615 87.5089 29.4929C86.6823 30.0095 85.7082 30.2678 84.5864 30.2678ZM84.4979 19.9063C83.4794 19.9063 82.6602 20.2236 82.0403 20.8583C81.4204 21.493 81.044 22.3564 80.9112 23.4487H87.7303C87.7008 22.4007 87.413 21.552 86.8668 20.9026C86.3207 20.2384 85.5311 19.9063 84.4979 19.9063ZM96.912 29.98H95.2294L90.7571 18.6886H92.6168L96.115 28.0538L99.6131 18.6886H101.384L96.912 29.98ZM108.11 30.2678C107.003 30.2678 106.044 30.0243 105.232 29.5372C104.435 29.0501 103.815 28.3638 103.372 27.4782C102.944 26.5926 102.73 25.5446 102.73 24.3343C102.73 23.183 102.937 22.1646 103.35 21.279C103.778 20.3786 104.391 19.6775 105.188 19.1757C105.985 18.6591 106.929 18.4008 108.022 18.4008C109.084 18.4008 109.977 18.6369 110.701 19.1092C111.424 19.5816 111.97 20.2384 112.339 21.0797C112.723 21.9063 112.915 22.873 112.915 23.98V24.8656H104.413C104.501 26.1202 104.863 27.087 105.498 27.766C106.147 28.4302 107.018 28.7623 108.11 28.7623C108.833 28.7623 109.446 28.6294 109.948 28.3638C110.464 28.0981 110.796 27.7586 110.944 27.3453H112.671C112.405 28.2457 111.859 28.9615 111.033 29.4929C110.206 30.0095 109.232 30.2678 108.11 30.2678ZM108.022 19.9063C107.003 19.9063 106.184 20.2236 105.564 20.8583C104.944 21.493 104.568 22.3564 104.435 23.4487H111.254C111.225 22.4007 110.937 21.552 110.391 20.9026C109.844 20.2384 109.055 19.9063 108.022 19.9063ZM117.358 24.2236V29.98H115.72V18.6886H117.314V20.7697C117.668 20.0908 118.141 19.5668 118.731 19.1978C119.321 18.8288 119.971 18.6443 120.679 18.6443H120.989V20.2162H120.635C120.059 20.2162 119.521 20.3638 119.019 20.659C118.532 20.9542 118.133 21.4044 117.823 22.0096C117.513 22.6 117.358 23.338 117.358 24.2236Z" fill="#626260"/>
<path d="M44.52 23.23L44.5 0H0V60H44.52V34.84H34.84V50.32H9.68V9.67999H34.84V23.23H44.52Z" fill="#1D6CC4"/>
<path d="M34.8405 21.29H23.2305V34.84H34.8405V21.29Z" fill="#1D6CC4"/>
</svg>
