<svg width="31" height="64" viewBox="0 0 31 64" fill="none" xmlns="http://www.w3.org/2000/svg">
<path d="M30.2847 15.4867L30.2711 0H0V40H30.2847V23.2267H23.6999V33.5467H6.58482V6.45333H23.6999V15.4867H30.2847Z" fill="#16C3C3"/>
<path d="M23.6995 15.4866H15.8018V24.5199H23.6995V15.4866Z" fill="#16C3C3"/>
<path d="M9.6516 55H8.59478C8.53228 54.696 8.4229 54.429 8.26665 54.1989C8.11324 53.9688 7.92574 53.7756 7.70415 53.6193C7.4854 53.4602 7.2425 53.3409 6.97546 53.2614C6.70841 53.1818 6.43 53.142 6.14023 53.142C5.61182 53.142 5.13313 53.2756 4.70415 53.5426C4.27802 53.8097 3.93853 54.2031 3.68569 54.723C3.43569 55.2429 3.31069 55.8807 3.31069 56.6364C3.31069 57.392 3.43569 58.0298 3.68569 58.5497C3.93853 59.0696 4.27802 59.4631 4.70415 59.7301C5.13313 59.9972 5.61182 60.1307 6.14023 60.1307C6.43 60.1307 6.70841 60.0909 6.97546 60.0114C7.2425 59.9318 7.4854 59.8139 7.70415 59.6577C7.92574 59.4986 8.11324 59.304 8.26665 59.0739C8.4229 58.8409 8.53228 58.5739 8.59478 58.2727H9.6516C9.57205 58.7187 9.42716 59.1179 9.21694 59.4702C9.00671 59.8224 8.74535 60.1222 8.43285 60.3693C8.12035 60.6136 7.76949 60.7997 7.38029 60.9276C6.99392 61.0554 6.58057 61.1193 6.14023 61.1193C5.39591 61.1193 4.73398 60.9375 4.15444 60.5739C3.57489 60.2102 3.11892 59.6932 2.78654 59.0227C2.45415 58.3523 2.28796 57.5568 2.28796 56.6364C2.28796 55.7159 2.45415 54.9205 2.78654 54.25C3.11892 53.5795 3.57489 53.0625 4.15444 52.6989C4.73398 52.3352 5.39591 52.1534 6.14023 52.1534C6.58057 52.1534 6.99392 52.2173 7.38029 52.3452C7.76949 52.473 8.12035 52.6605 8.43285 52.9077C8.74535 53.152 9.00671 53.4503 9.21694 53.8026C9.42716 54.152 9.57205 54.5511 9.6516 55ZM13.8821 61.1364C13.2912 61.1364 12.7727 60.9957 12.3267 60.7145C11.8835 60.4332 11.5369 60.0398 11.2869 59.5341C11.0397 59.0284 10.9162 58.4375 10.9162 57.7614C10.9162 57.0795 11.0397 56.4844 11.2869 55.9759C11.5369 55.4673 11.8835 55.0724 12.3267 54.7912C12.7727 54.5099 13.2912 54.3693 13.8821 54.3693C14.473 54.3693 14.99 54.5099 15.4332 54.7912C15.8792 55.0724 16.2258 55.4673 16.473 55.9759C16.723 56.4844 16.848 57.0795 16.848 57.7614C16.848 58.4375 16.723 59.0284 16.473 59.5341C16.2258 60.0398 15.8792 60.4332 15.4332 60.7145C14.99 60.9957 14.473 61.1364 13.8821 61.1364ZM13.8821 60.233C14.3309 60.233 14.7002 60.1179 14.99 59.8878C15.2798 59.6577 15.4943 59.3551 15.6335 58.9801C15.7727 58.6051 15.8423 58.1989 15.8423 57.7614C15.8423 57.3239 15.7727 56.9162 15.6335 56.5384C15.4943 56.1605 15.2798 55.8551 14.99 55.6222C14.7002 55.3892 14.3309 55.2727 13.8821 55.2727C13.4332 55.2727 13.0639 55.3892 12.7741 55.6222C12.4843 55.8551 12.2698 56.1605 12.1306 56.5384C11.9914 56.9162 11.9218 57.3239 11.9218 57.7614C11.9218 58.1989 11.9914 58.6051 12.1306 58.9801C12.2698 59.3551 12.4843 59.6577 12.7741 59.8878C13.0639 60.1179 13.4332 60.233 13.8821 60.233ZM18.3831 61V54.4545H19.3547V55.4432H19.4229C19.5422 55.1193 19.7581 54.8565 20.0706 54.6548C20.3831 54.4531 20.7354 54.3523 21.1274 54.3523C21.2013 54.3523 21.2936 54.3537 21.4044 54.3565C21.5152 54.3594 21.599 54.3636 21.6559 54.3693V55.392C21.6218 55.3835 21.5436 55.3707 21.4215 55.3537C21.3022 55.3338 21.1757 55.3239 21.0422 55.3239C20.724 55.3239 20.4399 55.3906 20.1899 55.5241C19.9428 55.6548 19.7468 55.8366 19.6019 56.0696C19.4598 56.2997 19.3888 56.5625 19.3888 56.858V61H18.3831ZM25.3931 61.1364C24.7624 61.1364 24.2184 60.9972 23.761 60.7188C23.3064 60.4375 22.9556 60.0455 22.7084 59.5426C22.4641 59.0369 22.3419 58.4489 22.3419 57.7784C22.3419 57.108 22.4641 56.517 22.7084 56.0057C22.9556 55.4915 23.2993 55.0909 23.7397 54.804C24.1828 54.5142 24.6999 54.3693 25.2908 54.3693C25.6317 54.3693 25.9684 54.4261 26.3007 54.5398C26.6331 54.6534 26.9357 54.8381 27.2084 55.0938C27.4811 55.3466 27.6985 55.6818 27.8604 56.0994C28.0223 56.517 28.1033 57.0312 28.1033 57.642V58.0682H23.0578V57.1989H27.0806C27.0806 56.8295 27.0067 56.5 26.859 56.2102C26.7141 55.9205 26.5067 55.6918 26.2368 55.5241C25.9698 55.3565 25.6544 55.2727 25.2908 55.2727C24.8902 55.2727 24.5436 55.3722 24.251 55.571C23.9613 55.767 23.7382 56.0227 23.582 56.3381C23.4257 56.6534 23.3476 56.9915 23.3476 57.3523V57.9318C23.3476 58.4261 23.4328 58.8452 23.6033 59.1889C23.7766 59.5298 24.0167 59.7898 24.3235 59.9688C24.6303 60.1449 24.9868 60.233 25.3931 60.233C25.6573 60.233 25.8959 60.196 26.109 60.1222C26.3249 60.0455 26.511 59.9318 26.6672 59.7812C26.8235 59.6278 26.9442 59.4375 27.0294 59.2102L28.001 59.483C27.8988 59.8125 27.7269 60.1023 27.4854 60.3523C27.2439 60.5994 26.9456 60.7926 26.5905 60.9318C26.2354 61.0682 25.8363 61.1364 25.3931 61.1364Z" fill="#626260"/>
</svg>
